<mxfile host="app.diagrams.net" modified="2023-12-03T12:17:46.069Z" agent="Mozilla/5.0 (Macintosh; Intel Mac OS X 10_15_7) AppleWebKit/537.36 (KHTML, like Gecko) Chrome/119.0.0.0 Safari/537.36" etag="b-vAjeSPatLmPmaCXjwy" version="22.1.5" type="device">
  <diagram name="Page-1" id="MkRUP9fNNkP6nz2b_eqx">
    <mxGraphModel dx="1060" dy="598" grid="1" gridSize="10" guides="1" tooltips="1" connect="1" arrows="1" fold="1" page="1" pageScale="1" pageWidth="850" pageHeight="1100" math="0" shadow="0">
      <root>
        <mxCell id="0" />
        <mxCell id="1" parent="0" />
        <mxCell id="n44AzTjSirEI03Bkfnj2-16" value="customers" style="swimlane;childLayout=stackLayout;horizontal=1;startSize=50;horizontalStack=0;rounded=1;fontSize=14;fontStyle=0;strokeWidth=2;resizeParent=0;resizeLast=1;shadow=0;dashed=0;align=center;arcSize=4;whiteSpace=wrap;html=1;" parent="1" vertex="1">
          <mxGeometry x="70" y="160" width="160" height="140" as="geometry" />
        </mxCell>
        <mxCell id="n44AzTjSirEI03Bkfnj2-17" value="customerId int PK&lt;br&gt;username nvarchar(50)&lt;br&gt;email nvarchar(50)&lt;br&gt;phonenumber nvarchar(50)&lt;br&gt;hayg nvachar(50)" style="align=left;strokeColor=none;fillColor=none;spacingLeft=4;fontSize=12;verticalAlign=top;resizable=0;rotatable=0;part=1;html=1;" parent="n44AzTjSirEI03Bkfnj2-16" vertex="1">
          <mxGeometry y="50" width="160" height="90" as="geometry" />
        </mxCell>
        <mxCell id="n44AzTjSirEI03Bkfnj2-18" value="movies" style="swimlane;childLayout=stackLayout;horizontal=1;startSize=50;horizontalStack=0;rounded=1;fontSize=14;fontStyle=0;strokeWidth=2;resizeParent=0;resizeLast=1;shadow=0;dashed=0;align=center;arcSize=4;whiteSpace=wrap;html=1;" parent="1" vertex="1">
          <mxGeometry x="70" y="570" width="195" height="200" as="geometry" />
        </mxCell>
        <mxCell id="n44AzTjSirEI03Bkfnj2-19" value="movieId int PK&lt;br&gt;title nvarchar(50)&lt;br&gt;genres nvarchar(100)&lt;br&gt;director nvarchar(50)&lt;br&gt;releaseDate date&lt;br&gt;duration int&lt;br&gt;movieDescription nvarchar(300)&lt;br&gt;moviePath nvarchar(50)&lt;br&gt;posterPath nvarchar(50)" style="align=left;strokeColor=none;fillColor=none;spacingLeft=4;fontSize=12;verticalAlign=top;resizable=0;rotatable=0;part=1;html=1;" parent="n44AzTjSirEI03Bkfnj2-18" vertex="1">
          <mxGeometry y="50" width="195" height="150" as="geometry" />
        </mxCell>
        <mxCell id="n44AzTjSirEI03Bkfnj2-20" value="screen" style="swimlane;childLayout=stackLayout;horizontal=1;startSize=50;horizontalStack=0;rounded=1;fontSize=14;fontStyle=0;strokeWidth=2;resizeParent=0;resizeLast=1;shadow=0;dashed=0;align=center;arcSize=4;whiteSpace=wrap;html=1;" parent="1" vertex="1">
          <mxGeometry x="300" y="210" width="170" height="140" as="geometry" />
        </mxCell>
        <mxCell id="n44AzTjSirEI03Bkfnj2-21" value="screenId int PK&lt;br&gt;theaterId int not null&lt;br&gt;suudliinToo int&lt;br&gt;screenRows int&lt;br&gt;screenColumns int" style="align=left;strokeColor=none;fillColor=none;spacingLeft=4;fontSize=12;verticalAlign=top;resizable=0;rotatable=0;part=1;html=1;" parent="n44AzTjSirEI03Bkfnj2-20" vertex="1">
          <mxGeometry y="50" width="170" height="90" as="geometry" />
        </mxCell>
        <mxCell id="n44AzTjSirEI03Bkfnj2-22" value="uzveruud" style="swimlane;childLayout=stackLayout;horizontal=1;startSize=50;horizontalStack=0;rounded=1;fontSize=14;fontStyle=0;strokeWidth=2;resizeParent=0;resizeLast=1;shadow=0;dashed=0;align=center;arcSize=4;whiteSpace=wrap;html=1;" parent="1" vertex="1">
          <mxGeometry x="430" y="450" width="170" height="190" as="geometry" />
        </mxCell>
        <mxCell id="n44AzTjSirEI03Bkfnj2-23" value="uzverId int PK&lt;br&gt;movieId int not null&lt;br&gt;theaterId int&lt;br&gt;startTime time&lt;br&gt;endTime time&lt;br&gt;uzverDateStart date&lt;br&gt;uzverDateEnd date&lt;br&gt;price float&lt;br&gt;screenId int" style="align=left;strokeColor=none;fillColor=none;spacingLeft=4;fontSize=12;verticalAlign=top;resizable=0;rotatable=0;part=1;html=1;" parent="n44AzTjSirEI03Bkfnj2-22" vertex="1">
          <mxGeometry y="50" width="170" height="140" as="geometry" />
        </mxCell>
        <mxCell id="n44AzTjSirEI03Bkfnj2-24" value="tickets" style="swimlane;childLayout=stackLayout;horizontal=1;startSize=50;horizontalStack=0;rounded=1;fontSize=14;fontStyle=0;strokeWidth=2;resizeParent=0;resizeLast=1;shadow=0;dashed=0;align=center;arcSize=4;whiteSpace=wrap;html=1;" parent="1" vertex="1">
          <mxGeometry x="70" y="380" width="170" height="140" as="geometry" />
        </mxCell>
        <mxCell id="n44AzTjSirEI03Bkfnj2-25" value="customerId int&amp;nbsp;&lt;br&gt;uzverId int not null&lt;br&gt;uzverDate date not null&lt;br&gt;suudliinDugaar int&amp;nbsp;&lt;br&gt;borluulsanUne float&lt;br&gt;" style="align=left;strokeColor=none;fillColor=none;spacingLeft=4;fontSize=12;verticalAlign=top;resizable=0;rotatable=0;part=1;html=1;" parent="n44AzTjSirEI03Bkfnj2-24" vertex="1">
          <mxGeometry y="50" width="170" height="90" as="geometry" />
        </mxCell>
        <mxCell id="n44AzTjSirEI03Bkfnj2-26" value="theaters" style="swimlane;childLayout=stackLayout;horizontal=1;startSize=50;horizontalStack=0;rounded=1;fontSize=14;fontStyle=0;strokeWidth=2;resizeParent=0;resizeLast=1;shadow=0;dashed=0;align=center;arcSize=4;whiteSpace=wrap;html=1;" parent="1" vertex="1">
          <mxGeometry x="580" y="220" width="170" height="130" as="geometry" />
        </mxCell>
        <mxCell id="n44AzTjSirEI03Bkfnj2-27" value="theaterId int PK&lt;br&gt;theaterName nvarchar(50)&lt;br&gt;theaterLocation nvarchar(50)&lt;br&gt;capacity int" style="align=left;strokeColor=none;fillColor=none;spacingLeft=4;fontSize=12;verticalAlign=top;resizable=0;rotatable=0;part=1;html=1;" parent="n44AzTjSirEI03Bkfnj2-26" vertex="1">
          <mxGeometry y="50" width="170" height="80" as="geometry" />
        </mxCell>
        <mxCell id="n44AzTjSirEI03Bkfnj2-29" style="edgeStyle=orthogonalEdgeStyle;rounded=0;orthogonalLoop=1;jettySize=auto;html=1;entryX=-0.007;entryY=0.185;entryDx=0;entryDy=0;entryPerimeter=0;exitX=1;exitY=0.333;exitDx=0;exitDy=0;exitPerimeter=0;startArrow=ERmany;startFill=0;endArrow=ERmandOne;endFill=0;" parent="1" source="n44AzTjSirEI03Bkfnj2-21" target="n44AzTjSirEI03Bkfnj2-27" edge="1">
          <mxGeometry relative="1" as="geometry" />
        </mxCell>
        <mxCell id="n44AzTjSirEI03Bkfnj2-30" style="edgeStyle=orthogonalEdgeStyle;rounded=0;orthogonalLoop=1;jettySize=auto;html=1;entryX=-0.012;entryY=0.142;entryDx=0;entryDy=0;entryPerimeter=0;exitX=0.99;exitY=0.897;exitDx=0;exitDy=0;exitPerimeter=0;endArrow=ERmandOne;endFill=0;startArrow=ERmany;startFill=0;" parent="1" source="n44AzTjSirEI03Bkfnj2-23" target="n44AzTjSirEI03Bkfnj2-21" edge="1">
          <mxGeometry relative="1" as="geometry">
            <Array as="points">
              <mxPoint x="640" y="626" />
              <mxPoint x="640" y="363" />
              <mxPoint x="280" y="363" />
              <mxPoint x="280" y="273" />
            </Array>
          </mxGeometry>
        </mxCell>
        <mxCell id="ZXVZC_J4xAfKdRdZgB5--1" style="edgeStyle=orthogonalEdgeStyle;rounded=0;orthogonalLoop=1;jettySize=auto;html=1;entryX=0.005;entryY=0.092;entryDx=0;entryDy=0;entryPerimeter=0;endArrow=ERmandOne;endFill=0;startArrow=ERmany;startFill=0;" edge="1" parent="1" source="n44AzTjSirEI03Bkfnj2-25" target="n44AzTjSirEI03Bkfnj2-23">
          <mxGeometry relative="1" as="geometry" />
        </mxCell>
        <mxCell id="ZXVZC_J4xAfKdRdZgB5--2" style="edgeStyle=orthogonalEdgeStyle;rounded=0;orthogonalLoop=1;jettySize=auto;html=1;entryX=-0.024;entryY=0.109;entryDx=0;entryDy=0;entryPerimeter=0;endArrow=ERmandOne;endFill=0;startArrow=ERmany;startFill=0;exitX=-0.018;exitY=0.114;exitDx=0;exitDy=0;exitPerimeter=0;" edge="1" parent="1" source="n44AzTjSirEI03Bkfnj2-25" target="n44AzTjSirEI03Bkfnj2-17">
          <mxGeometry relative="1" as="geometry">
            <mxPoint x="50" y="350" as="targetPoint" />
            <mxPoint x="60" y="440" as="sourcePoint" />
            <Array as="points">
              <mxPoint x="40" y="440" />
              <mxPoint x="40" y="220" />
            </Array>
          </mxGeometry>
        </mxCell>
        <mxCell id="ZXVZC_J4xAfKdRdZgB5--4" style="edgeStyle=orthogonalEdgeStyle;rounded=0;orthogonalLoop=1;jettySize=auto;html=1;exitX=0;exitY=0.25;exitDx=0;exitDy=0;entryX=1.006;entryY=0.113;entryDx=0;entryDy=0;entryPerimeter=0;endArrow=ERmandOne;endFill=0;startArrow=ERmany;startFill=0;" edge="1" parent="1" source="n44AzTjSirEI03Bkfnj2-23" target="n44AzTjSirEI03Bkfnj2-19">
          <mxGeometry relative="1" as="geometry">
            <mxPoint x="290" y="710" as="targetPoint" />
            <Array as="points">
              <mxPoint x="310" y="535" />
              <mxPoint x="310" y="637" />
            </Array>
          </mxGeometry>
        </mxCell>
      </root>
    </mxGraphModel>
  </diagram>
</mxfile>
